<svg width="59" height="21" viewBox="0 0 59 21" fill="none" xmlns="http://www.w3.org/2000/svg">
<path d="M12 17V13" stroke="black"/>
<path d="M12 4L12 9" stroke="black"/>
<path d="M12 11L18 11" stroke="black"/>
<path d="M14.7333 17V4.17333H18.252C21.996 4.17333 24.1973 6.56533 24.1973 10.5867C24.1973 14.608 21.996 17 18.252 17H14.7333ZM15.8253 16.064H18.356C21.32 16.064 23.088 14.036 23.088 10.5867C23.088 7.13733 21.32 5.10933 18.356 5.10933H15.8253V16.064ZM34.604 4.17333H35.748L31.588 17H29.5253L25.3653 4.17333H26.5786L30.548 16.8787H30.5826L34.604 4.17333ZM45.6192 17L44.4578 13.62H38.0445L36.8832 17H35.7392L40.3325 4.17333H42.2565L46.8152 17H45.6192ZM38.3738 12.684H44.1458L41.2858 4.29467H41.2512L38.3738 12.684ZM55.3765 12.9787L57.8205 17H56.5725L53.1925 11.4013H49.9165V17H48.8245V4.17333H53.2271C55.8791 4.17333 57.4565 5.47333 57.4565 7.64C57.4565 9.98 55.9311 11.3667 53.3485 11.3667V11.4013C53.9725 11.4013 54.7525 11.9733 55.3765 12.9787ZM49.9165 10.5H53.3485C55.2378 10.5 56.3471 9.47733 56.3471 7.72667C56.3471 6.08 55.2205 5.10933 53.3311 5.10933H49.9165V10.5Z" fill="black"/>
<path d="M9.516 4.17333V5.10933H5.47733V17H4.38533V5.10933H0.346667V4.17333H9.516Z" fill="black"/>
</svg>
